<?xml version="1.0" encoding="UTF-8" standalone="no"?>
<!-- Created with Inkscape (http://www.inkscape.org/) -->

<svg
   version="1.1"
   id="svg111853"
   width="800"
   height="800"
   viewBox="0 0 800 800"
   sodipodi:docname="eyeballs-pdv.svg"
   inkscape:version="1.2 (dc2aedaf03, 2022-05-15)"
   xmlns:inkscape="http://www.inkscape.org/namespaces/inkscape"
   xmlns:sodipodi="http://sodipodi.sourceforge.net/DTD/sodipodi-0.dtd"
   xmlns="http://www.w3.org/2000/svg"
   xmlns:svg="http://www.w3.org/2000/svg">
  <defs
     id="defs111857">
    <clipPath
       clipPathUnits="userSpaceOnUse"
       id="clipPath111869">
      <path
         d="M 0,600 H 600 V 0 H 0 Z"
         id="path111867" />
    </clipPath>
  </defs>
  <sodipodi:namedview
     id="namedview111855"
     pagecolor="#ffffff"
     bordercolor="#000000"
     borderopacity="0.25"
     inkscape:showpageshadow="2"
     inkscape:pageopacity="0.0"
     inkscape:pagecheckerboard="0"
     inkscape:deskcolor="#d1d1d1"
     showgrid="false"
     inkscape:zoom="1.04625"
     inkscape:cx="400"
     inkscape:cy="400.4779"
     inkscape:window-width="1920"
     inkscape:window-height="1017"
     inkscape:window-x="-8"
     inkscape:window-y="-8"
     inkscape:window-maximized="1"
     inkscape:current-layer="g111861">
    <inkscape:page
       x="0"
       y="0"
       id="page111859"
       width="800"
       height="800" />
  </sodipodi:namedview>
  <g
     id="g111861"
     inkscape:groupmode="layer"
     inkscape:label="Page 1"
     transform="matrix(1.3333333,0,0,-1.3333333,0,800)">
    <g
       id="g111863">
      <g
         id="g111865"
         clip-path="url(#clipPath111869)">
        <g
           id="g111871"
           transform="translate(419.707,145.5205)">
          <path
             d="M 0,0 C 40.074,0 72.76,9.153 72.76,20.378 72.76,31.604 40.074,40.757 0,40.757 -40.076,40.757 -72.761,31.604 -72.761,20.378 -72.761,9.153 -40.076,0 0,0"
             style="fill:#ffffff;fill-opacity:1;fill-rule:evenodd;stroke:none"
             id="path111873" />
        </g>
        <g
           id="g111875"
           transform="translate(419.707,185.4639)">
          <path
             d="m 0,0 c 38.583,0 69.86,-8.759 69.86,-19.565 0,-10.807 -31.277,-19.567 -69.86,-19.567 -38.582,0 -69.86,8.76 -69.86,19.567 C -69.86,-8.759 -38.582,0 0,0"
             style="fill:#fdfdfd;fill-opacity:1;fill-rule:evenodd;stroke:none"
             id="path111877" />
        </g>
        <g
           id="g111879"
           transform="translate(419.707,184.6514)">
          <path
             d="m 0,0 c 36.979,0 66.959,-8.395 66.959,-18.753 0,-10.356 -29.98,-18.754 -66.959,-18.754 -36.98,0 -66.96,8.398 -66.96,18.754 C -66.96,-8.395 -36.98,0 0,0"
             style="fill:#fbfbfb;fill-opacity:1;fill-rule:evenodd;stroke:none"
             id="path111881" />
        </g>
        <g
           id="g111883"
           transform="translate(419.707,183.8398)">
          <path
             d="m 0,0 c 35.378,0 64.059,-8.032 64.059,-17.941 0,-9.909 -28.681,-17.942 -64.059,-17.942 -35.378,0 -64.059,8.033 -64.059,17.942 C -64.059,-8.032 -35.378,0 0,0"
             style="fill:#faf9f9;fill-opacity:1;fill-rule:evenodd;stroke:none"
             id="path111885" />
        </g>
        <g
           id="g111887"
           transform="translate(419.707,183.0283)">
          <path
             d="m 0,0 c 33.776,0 61.158,-7.669 61.158,-17.13 0,-9.459 -27.382,-17.129 -61.158,-17.129 -33.776,0 -61.158,7.67 -61.158,17.129 C -61.158,-7.669 -33.776,0 0,0"
             style="fill:#f8f7f7;fill-opacity:1;fill-rule:evenodd;stroke:none"
             id="path111889" />
        </g>
        <g
           id="g111891"
           transform="translate(419.707,182.2158)">
          <path
             d="m 0,0 c 32.175,0 58.258,-7.306 58.258,-16.317 0,-9.011 -26.083,-16.318 -58.258,-16.318 -32.175,0 -58.258,7.307 -58.258,16.318 C -58.258,-7.306 -32.175,0 0,0"
             style="fill:#f6f5f5;fill-opacity:1;fill-rule:evenodd;stroke:none"
             id="path111893" />
        </g>
        <g
           id="g111895"
           transform="translate(419.707,181.4033)">
          <path
             d="m 0,0 c 30.572,0 55.358,-6.943 55.358,-15.505 0,-8.562 -24.786,-15.504 -55.358,-15.504 -30.573,0 -55.356,6.942 -55.356,15.504 C -55.356,-6.943 -30.573,0 0,0"
             style="fill:#f4f3f3;fill-opacity:1;fill-rule:evenodd;stroke:none"
             id="path111897" />
        </g>
        <g
           id="g111899"
           transform="translate(419.707,180.5898)">
          <path
             d="m 0,0 c 28.971,0 52.457,-6.576 52.457,-14.691 0,-8.114 -23.486,-14.693 -52.457,-14.693 -28.971,0 -52.456,6.579 -52.456,14.693 C -52.456,-6.576 -28.971,0 0,0"
             style="fill:#f2f1f1;fill-opacity:1;fill-rule:evenodd;stroke:none"
             id="path111901" />
        </g>
        <g
           id="g111903"
           transform="translate(419.707,179.7773)">
          <path
             d="m 0,0 c 27.369,0 49.557,-6.213 49.557,-13.879 0,-7.665 -22.188,-13.88 -49.557,-13.88 -27.369,0 -49.556,6.215 -49.556,13.88 C -49.556,-6.213 -27.369,0 0,0"
             style="fill:#f1efef;fill-opacity:1;fill-rule:evenodd;stroke:none"
             id="path111905" />
        </g>
        <g
           id="g111907"
           transform="translate(419.707,178.9658)">
          <path
             d="m 0,0 c 25.768,0 46.656,-5.852 46.656,-13.067 0,-7.217 -20.888,-13.067 -46.656,-13.067 -25.768,0 -46.654,5.85 -46.654,13.067 C -46.654,-5.852 -25.768,0 0,0"
             style="fill:#efeded;fill-opacity:1;fill-rule:evenodd;stroke:none"
             id="path111909" />
        </g>
        <g
           id="g111911"
           transform="translate(419.707,178.1543)">
          <path
             d="m 0,0 c 24.166,0 43.756,-5.488 43.756,-12.256 0,-6.767 -19.59,-12.255 -43.756,-12.255 -24.164,0 -43.756,5.488 -43.756,12.255 C -43.756,-5.488 -24.164,0 0,0"
             style="fill:#edebeb;fill-opacity:1;fill-rule:evenodd;stroke:none"
             id="path111913" />
        </g>
        <g
           id="g111915"
           transform="translate(419.707,177.3418)">
          <path
             d="m 0,0 c 22.563,0 40.854,-5.123 40.854,-11.443 0,-6.32 -18.291,-11.442 -40.854,-11.442 -22.563,0 -40.855,5.122 -40.855,11.442 C -40.855,-5.123 -22.563,0 0,0"
             style="fill:#ebeaea;fill-opacity:1;fill-rule:evenodd;stroke:none"
             id="path111917" />
        </g>
        <g
           id="g111919"
           transform="translate(419.707,176.5293)">
          <path
             d="m 0,0 c 20.962,0 37.954,-4.761 37.954,-10.631 0,-5.87 -16.992,-10.63 -37.954,-10.63 -20.962,0 -37.954,4.76 -37.954,10.63 C -37.954,-4.761 -20.962,0 0,0"
             style="fill:#e9e8e8;fill-opacity:1;fill-rule:evenodd;stroke:none"
             id="path111921" />
        </g>
        <g
           id="g111923"
           transform="translate(419.707,175.7158)">
          <path
             d="m 0,0 c 19.358,0 35.054,-4.396 35.054,-9.817 0,-5.422 -15.696,-9.819 -35.054,-9.819 -19.36,0 -35.054,4.397 -35.054,9.819 C -35.054,-4.396 -19.36,0 0,0"
             style="fill:#e7e6e6;fill-opacity:1;fill-rule:evenodd;stroke:none"
             id="path111925" />
        </g>
        <g
           id="g111927"
           transform="translate(419.707,174.9033)">
          <path
             d="m 0,0 c 17.757,0 32.154,-4.03 32.154,-9.005 0,-4.974 -14.397,-9.005 -32.154,-9.005 -17.759,0 -32.152,4.031 -32.152,9.005 C -32.152,-4.03 -17.759,0 0,0"
             style="fill:#e6e4e4;fill-opacity:1;fill-rule:evenodd;stroke:none"
             id="path111929" />
        </g>
        <g
           id="g111931"
           transform="translate(419.707,174.0918)">
          <path
             d="m 0,0 c 16.155,0 29.252,-3.669 29.252,-8.193 0,-4.525 -13.097,-8.194 -29.252,-8.194 -16.157,0 -29.254,3.669 -29.254,8.194 C -29.254,-3.669 -16.157,0 0,0"
             style="fill:#e4e2e2;fill-opacity:1;fill-rule:evenodd;stroke:none"
             id="path111933" />
        </g>
        <g
           id="g111935"
           transform="translate(419.707,173.2803)">
          <path
             d="m 0,0 c 14.554,0 26.353,-3.306 26.353,-7.382 0,-4.076 -11.799,-7.38 -26.353,-7.38 -14.554,0 -26.352,3.304 -26.352,7.38 C -26.352,-3.306 -14.554,0 0,0"
             style="fill:#e2e0e0;fill-opacity:1;fill-rule:evenodd;stroke:none"
             id="path111937" />
        </g>
        <g
           id="g111939"
           transform="translate(419.707,172.4668)">
          <path
             d="m 0,0 c 12.951,0 23.452,-2.939 23.452,-6.568 0,-3.628 -10.501,-6.568 -23.452,-6.568 -12.951,0 -23.452,2.94 -23.452,6.568 C -23.452,-2.939 -12.951,0 0,0"
             style="fill:#e0dede;fill-opacity:1;fill-rule:evenodd;stroke:none"
             id="path111941" />
        </g>
        <g
           id="g111943"
           transform="translate(419.707,171.6553)">
          <path
             d="m 0,0 c 11.35,0 20.552,-2.578 20.552,-5.757 0,-3.179 -9.202,-5.756 -20.552,-5.756 -11.35,0 -20.552,2.577 -20.552,5.756 C -20.552,-2.578 -11.35,0 0,0"
             style="fill:#dedcdc;fill-opacity:1;fill-rule:evenodd;stroke:none"
             id="path111945" />
        </g>
        <g
           id="g111947"
           transform="translate(419.707,170.8418)">
          <path
             d="m 0,0 c 9.748,0 17.65,-2.213 17.65,-4.943 0,-2.731 -7.902,-4.943 -17.65,-4.943 -9.748,0 -17.65,2.212 -17.65,4.943 C -17.65,-2.213 -9.748,0 0,0"
             style="fill:#dddada;fill-opacity:1;fill-rule:evenodd;stroke:none"
             id="path111949" />
        </g>
        <g
           id="g111951"
           transform="translate(419.707,170.0293)">
          <path
             d="m 0,0 c 8.146,0 14.75,-1.848 14.75,-4.131 0,-2.282 -6.604,-4.131 -14.75,-4.131 -8.147,0 -14.75,1.849 -14.75,4.131 C -14.75,-1.848 -8.147,0 0,0"
             style="fill:#dbd8d8;fill-opacity:1;fill-rule:evenodd;stroke:none"
             id="path111953" />
        </g>
        <g
           id="g111955"
           transform="translate(419.707,162.5801)">
          <path
             d="m 0,0 c 6.525,0 11.85,1.49 11.85,3.318 0,1.828 -5.325,3.32 -11.85,3.32 -6.527,0 -11.85,-1.492 -11.85,-3.32 C -11.85,1.49 -6.527,0 0,0"
             style="fill:#d9d6d6;fill-opacity:1;fill-rule:evenodd;stroke:none"
             id="path111957" />
        </g>
        <g
           id="g111959"
           transform="translate(164.9409,145.5205)">
          <path
             d="M 0,0 C 40.076,0 72.761,9.153 72.761,20.378 72.761,31.604 40.076,40.757 0,40.757 -40.074,40.757 -72.759,31.604 -72.759,20.378 -72.759,9.153 -40.074,0 0,0"
             style="fill:#ffffff;fill-opacity:1;fill-rule:evenodd;stroke:none"
             id="path111961" />
        </g>
        <g
           id="g111963"
           transform="translate(164.9424,185.4639)">
          <path
             d="m 0,0 c 38.582,0 69.858,-8.759 69.858,-19.565 0,-10.807 -31.276,-19.567 -69.858,-19.567 -38.582,0 -69.858,8.76 -69.858,19.567 C -69.858,-8.759 -38.582,0 0,0"
             style="fill:#fdfdfd;fill-opacity:1;fill-rule:evenodd;stroke:none"
             id="path111965" />
        </g>
        <g
           id="g111967"
           transform="translate(164.9424,184.6514)">
          <path
             d="m 0,0 c 36.98,0 66.96,-8.395 66.96,-18.753 0,-10.356 -29.98,-18.754 -66.96,-18.754 -36.98,0 -66.959,8.398 -66.959,18.754 C -66.959,-8.395 -36.98,0 0,0"
             style="fill:#fbfbfb;fill-opacity:1;fill-rule:evenodd;stroke:none"
             id="path111969" />
        </g>
        <g
           id="g111971"
           transform="translate(164.9424,183.8398)">
          <path
             d="m 0,0 c 35.378,0 64.059,-8.032 64.059,-17.941 0,-9.909 -28.681,-17.942 -64.059,-17.942 -35.378,0 -64.059,8.033 -64.059,17.942 C -64.059,-8.032 -35.378,0 0,0"
             style="fill:#faf9f9;fill-opacity:1;fill-rule:evenodd;stroke:none"
             id="path111973" />
        </g>
        <g
           id="g111975"
           transform="translate(164.9424,183.0283)">
          <path
             d="m 0,0 c 33.776,0 61.158,-7.669 61.158,-17.13 0,-9.459 -27.382,-17.129 -61.158,-17.129 -33.776,0 -61.16,7.67 -61.16,17.129 C -61.16,-7.669 -33.776,0 0,0"
             style="fill:#f8f7f7;fill-opacity:1;fill-rule:evenodd;stroke:none"
             id="path111977" />
        </g>
        <g
           id="g111979"
           transform="translate(164.9424,182.2158)">
          <path
             d="m 0,0 c 32.175,0 58.258,-7.306 58.258,-16.317 0,-9.011 -26.083,-16.318 -58.258,-16.318 -32.174,0 -58.257,7.307 -58.257,16.318 C -58.257,-7.306 -32.174,0 0,0"
             style="fill:#f6f5f5;fill-opacity:1;fill-rule:evenodd;stroke:none"
             id="path111981" />
        </g>
        <g
           id="g111983"
           transform="translate(164.9424,181.4033)">
          <path
             d="m 0,0 c 30.573,0 55.358,-6.943 55.358,-15.505 0,-8.562 -24.785,-15.504 -55.358,-15.504 -30.573,0 -55.358,6.942 -55.358,15.504 C -55.358,-6.943 -30.573,0 0,0"
             style="fill:#f4f3f3;fill-opacity:1;fill-rule:evenodd;stroke:none"
             id="path111985" />
        </g>
        <g
           id="g111987"
           transform="translate(164.9424,180.5898)">
          <path
             d="m 0,0 c 28.971,0 52.458,-6.576 52.458,-14.691 0,-8.114 -23.487,-14.693 -52.458,-14.693 -28.971,0 -52.458,6.579 -52.458,14.693 C -52.458,-6.576 -28.971,0 0,0"
             style="fill:#f2f1f1;fill-opacity:1;fill-rule:evenodd;stroke:none"
             id="path111989" />
        </g>
        <g
           id="g111991"
           transform="translate(164.9424,179.7773)">
          <path
             d="m 0,0 c 27.369,0 49.557,-6.213 49.557,-13.879 0,-7.665 -22.188,-13.88 -49.557,-13.88 -27.369,0 -49.557,6.215 -49.557,13.88 C -49.557,-6.213 -27.369,0 0,0"
             style="fill:#f1efef;fill-opacity:1;fill-rule:evenodd;stroke:none"
             id="path111993" />
        </g>
        <g
           id="g111995"
           transform="translate(164.9424,178.9658)">
          <path
             d="m 0,0 c 25.768,0 46.656,-5.852 46.656,-13.067 0,-7.217 -20.888,-13.067 -46.656,-13.067 -25.767,0 -46.656,5.85 -46.656,13.067 C -46.656,-5.852 -25.767,0 0,0"
             style="fill:#efeded;fill-opacity:1;fill-rule:evenodd;stroke:none"
             id="path111997" />
        </g>
        <g
           id="g111999"
           transform="translate(164.9424,178.1543)">
          <path
             d="m 0,0 c 24.166,0 43.756,-5.488 43.756,-12.256 0,-6.767 -19.59,-12.255 -43.756,-12.255 -24.165,0 -43.755,5.488 -43.755,12.255 C -43.755,-5.488 -24.165,0 0,0"
             style="fill:#edebeb;fill-opacity:1;fill-rule:evenodd;stroke:none"
             id="path112001" />
        </g>
        <g
           id="g112003"
           transform="translate(164.9424,177.3418)">
          <path
             d="m 0,0 c 22.564,0 40.854,-5.123 40.854,-11.443 0,-6.32 -18.29,-11.442 -40.854,-11.442 -22.564,0 -40.854,5.122 -40.854,11.442 C -40.854,-5.123 -22.564,0 0,0"
             style="fill:#ebeaea;fill-opacity:1;fill-rule:evenodd;stroke:none"
             id="path112005" />
        </g>
        <g
           id="g112007"
           transform="translate(164.9424,176.5293)">
          <path
             d="m 0,0 c 20.961,0 37.954,-4.761 37.954,-10.631 0,-5.87 -16.993,-10.63 -37.954,-10.63 -20.962,0 -37.954,4.76 -37.954,10.63 C -37.954,-4.761 -20.962,0 0,0"
             style="fill:#e9e8e8;fill-opacity:1;fill-rule:evenodd;stroke:none"
             id="path112009" />
        </g>
        <g
           id="g112011"
           transform="translate(164.9424,175.7158)">
          <path
             d="m 0,0 c 19.359,0 35.054,-4.396 35.054,-9.817 0,-5.422 -15.695,-9.819 -35.054,-9.819 -19.36,0 -35.053,4.397 -35.053,9.819 C -35.053,-4.396 -19.36,0 0,0"
             style="fill:#e7e6e6;fill-opacity:1;fill-rule:evenodd;stroke:none"
             id="path112013" />
        </g>
        <g
           id="g112015"
           transform="translate(164.9424,174.9033)">
          <path
             d="m 0,0 c 17.757,0 32.153,-4.03 32.153,-9.005 0,-4.974 -14.396,-9.005 -32.153,-9.005 -17.758,0 -32.152,4.031 -32.152,9.005 C -32.152,-4.03 -17.758,0 0,0"
             style="fill:#e6e4e4;fill-opacity:1;fill-rule:evenodd;stroke:none"
             id="path112017" />
        </g>
        <g
           id="g112019"
           transform="translate(164.9424,174.0918)">
          <path
             d="m 0,0 c 16.155,0 29.252,-3.669 29.252,-8.193 0,-4.525 -13.097,-8.194 -29.252,-8.194 -16.157,0 -29.252,3.669 -29.252,8.194 C -29.252,-3.669 -16.157,0 0,0"
             style="fill:#e4e2e2;fill-opacity:1;fill-rule:evenodd;stroke:none"
             id="path112021" />
        </g>
        <g
           id="g112023"
           transform="translate(164.9424,173.2803)">
          <path
             d="m 0,0 c 14.554,0 26.352,-3.306 26.352,-7.382 0,-4.076 -11.798,-7.38 -26.352,-7.38 -14.555,0 -26.351,3.304 -26.351,7.38 C -26.351,-3.306 -14.555,0 0,0"
             style="fill:#e2e0e0;fill-opacity:1;fill-rule:evenodd;stroke:none"
             id="path112025" />
        </g>
        <g
           id="g112027"
           transform="translate(164.9424,172.4668)">
          <path
             d="m 0,0 c 12.952,0 23.451,-2.939 23.451,-6.568 0,-3.628 -10.499,-6.568 -23.451,-6.568 -12.953,0 -23.451,2.94 -23.451,6.568 C -23.451,-2.939 -12.953,0 0,0"
             style="fill:#e0dede;fill-opacity:1;fill-rule:evenodd;stroke:none"
             id="path112029" />
        </g>
        <g
           id="g112031"
           transform="translate(164.9424,171.6553)">
          <path
             d="m 0,0 c 11.35,0 20.552,-2.578 20.552,-5.757 0,-3.179 -9.202,-5.756 -20.552,-5.756 -11.351,0 -20.551,2.577 -20.551,5.756 0,3.179 9.2,5.757 20.551,5.757"
             style="fill:#dedcdc;fill-opacity:1;fill-rule:evenodd;stroke:none"
             id="path112033" />
        </g>
        <g
           id="g112035"
           transform="translate(164.9424,170.8418)">
          <path
             d="m 0,0 c 9.748,0 17.651,-2.213 17.651,-4.943 0,-2.731 -7.903,-4.943 -17.651,-4.943 -9.749,0 -17.651,2.212 -17.651,4.943 C -17.651,-2.213 -9.749,0 0,0"
             style="fill:#dddada;fill-opacity:1;fill-rule:evenodd;stroke:none"
             id="path112037" />
        </g>
        <g
           id="g112039"
           transform="translate(164.9424,170.0293)">
          <path
             d="m 0,0 c 8.146,0 14.75,-1.848 14.75,-4.131 0,-2.282 -6.604,-4.131 -14.75,-4.131 -8.146,0 -14.751,1.849 -14.751,4.131 C -14.751,-1.848 -8.146,0 0,0"
             style="fill:#dbd8d8;fill-opacity:1;fill-rule:evenodd;stroke:none"
             id="path112041" />
        </g>
        <g
           id="g112043"
           transform="translate(164.9424,162.5801)">
          <path
             d="m 0,0 c 6.527,0 11.85,1.49 11.85,3.318 0,1.828 -5.323,3.32 -11.85,3.32 -6.527,0 -11.849,-1.492 -11.849,-3.32 C -11.849,1.49 -6.527,0 0,0"
             style="fill:#d9d6d6;fill-opacity:1;fill-rule:evenodd;stroke:none"
             id="path112045" />
        </g>
        <g
           id="g112047"
           transform="translate(166.0933,168.1973)">
          <path
             d="m 0,0 c 60.711,0 110.226,49.515 110.226,110.228 0,60.711 -49.515,110.227 -110.226,110.227 -60.712,0 -110.229,-49.516 -110.229,-110.227 C -110.229,49.515 -60.712,0 0,0"
             style="fill:#e8d8d8;fill-opacity:1;fill-rule:evenodd;stroke:none"
             id="path112049" />
        </g>
        <g
           id="g112051"
           transform="translate(149.1919,210.5127)">
          <path
             d="m 0,0 c 46.712,0 84.81,38.1 84.81,84.811 0,46.714 -38.098,84.814 -84.81,84.814 -46.714,0 -84.813,-38.1 -84.813,-84.814 C -84.813,38.1 -46.714,0 0,0"
             style="fill:#f0e2e2;fill-opacity:1;fill-rule:evenodd;stroke:none"
             id="path112053" />
        </g>
        <g
           id="g112055"
           transform="translate(128.1938,260.7031)">
          <path
             d="m 0,0 c 29.788,0 54.083,24.296 54.083,54.083 0,29.788 -24.295,54.083 -54.083,54.083 -29.787,0 -54.083,-24.295 -54.083,-54.083 C -54.083,24.296 -29.787,0 0,0"
             style="fill:#f7efef;fill-opacity:1;fill-rule:evenodd;stroke:none"
             id="path112057" />
        </g>
        <g
           id="g112059"
           transform="translate(196.3086,217.1709)">
          <path
             d="m 0,0 c 29.789,0 54.083,24.296 54.083,54.083 0,29.788 -24.294,54.083 -54.083,54.083 -29.788,0 -54.083,-24.295 -54.083,-54.083 C -54.083,24.296 -29.788,0 0,0"
             style="fill:#1c1919;fill-opacity:1;fill-rule:evenodd;stroke:none"
             id="path112061" />
        </g>
        <g
           id="g112063"
           transform="translate(133.8389,376.166)">
          <path
             d="m 0,0 c 9.061,2.52 17.629,0.166 19.136,-5.258 1.506,-5.424 -4.617,-11.862 -13.678,-14.38 -9.061,-2.518 -17.629,-0.164 -19.137,5.258 C -15.186,-8.955 -9.061,-2.517 0,0"
             style="fill:#ffffff;fill-opacity:1;fill-rule:evenodd;stroke:none"
             id="path112065" />
        </g>
        <g
           id="g112067"
           transform="translate(156.6572,354.9336)">
          <path
             d="m 0,0 c 5.628,-1.528 8.821,-6.956 7.132,-12.127 -1.69,-5.171 -7.624,-8.124 -13.252,-6.598 -5.629,1.529 -8.822,6.957 -7.131,12.127 C -11.562,-1.427 -5.629,1.527 0,0"
             style="fill:#ffffff;fill-opacity:1;fill-rule:evenodd;stroke:none"
             id="path112069" />
        </g>
        <g
           id="g112071"
           transform="translate(232.5283,300.5361)">
          <path
             d="m 0,0 c 6.335,-1.945 9.928,-8.855 8.027,-15.438 -1.903,-6.582 -8.58,-10.339 -14.916,-8.395 -6.335,1.944 -9.926,8.854 -8.025,15.436 C -13.011,-1.816 -6.336,1.943 0,0"
             style="fill:#ffffff;fill-opacity:1;fill-rule:evenodd;stroke:none"
             id="path112073" />
        </g>
        <g
           id="g112075"
           transform="translate(229.918,279.0898)">
          <path
             d="M 0,0 C 2.37,-0.727 3.712,-3.312 3,-5.775 2.29,-8.235 -0.208,-9.644 -2.578,-8.916 -4.947,-8.188 -6.292,-5.604 -5.58,-3.14 -4.868,-0.68 -2.37,0.728 0,0"
             style="fill:#ffffff;fill-opacity:1;fill-rule:evenodd;stroke:none"
             id="path112077" />
        </g>
        <g
           id="g112079"
           transform="translate(95.04,362.6895)">
          <path
             d="M 0,0 C 1.003,0.847 2.014,1.679 3.044,2.489 3.24,1.165 3.332,0.02 3.297,-0.799 2.473,-10.714 1.555,-15.736 4.544,-25.764 c 0.748,-2.331 1.22,-4.471 1.807,-6.821 0.447,-1.692 0.849,-3.077 1.975,-4.452 0.673,-0.749 1.229,-1.174 2.093,-1.655 0.994,-0.538 1.912,-0.872 2.986,-1.196 3.701,-1.065 7.553,-1.47 11.374,-1.83 -3.842,0.281 -7.71,0.602 -11.459,1.53 -1.183,0.329 -2.192,0.674 -3.278,1.254 -0.828,0.467 -1.415,0.899 -2.061,1.597 -1.226,1.44 -1.68,2.816 -2.201,4.6 -0.669,2.306 -1.215,4.42 -2.042,6.697 C 0.209,-15.88 1.065,-11.571 0.225,-1.492 0.181,-1.114 0.103,-0.604 0,0 m -35.133,-54.598 c -0.022,-3.709 0.085,-7.046 0.275,-9.242 1.719,-9.642 15.331,-22.722 21.883,-31.58 2.543,-3.423 4.806,-6.048 8.198,-8.674 1.046,-0.771 2.031,-1.404 3.172,-2.026 5.143,-2.624 9.374,-3.188 15.094,-3.2 -5.686,0.112 -9.887,0.752 -14.941,3.475 -1.026,0.59 -1.92,1.183 -2.866,1.899 -3.341,2.532 -5.717,5.488 -8.162,8.879 -6.501,9.052 -19.805,21.797 -19.328,32.028 0.127,2.088 0.135,10.786 -0.115,18.161 -1.213,-3.172 -2.286,-6.414 -3.21,-9.72 m -1.33,-54.054 c -0.578,2.557 -1.071,5.145 -1.468,7.767 0.85,-1.516 1.48,-2.675 1.715,-3.131 4.63,-8.823 13.452,-16.245 20.799,-22.776 3.833,-3.399 8.105,-7.481 12.896,-9.446 0.752,-0.282 1.544,-0.54 2.334,-0.694 1.502,-0.302 2.694,-0.36 4.221,-0.253 3.076,0.29 5.48,1.126 8.299,2.352 0.806,0.415 2.77,1.764 3.491,2.355 -0.459,-0.472 -2.788,-2.049 -3.45,-2.443 -2.821,-1.291 -5.221,-2.181 -8.315,-2.557 -1.658,-0.153 -2.946,-0.105 -4.582,0.215 -0.757,0.162 -1.425,0.36 -2.153,0.621 -5.067,2.027 -9.155,5.734 -13.307,9.2 -7.311,6.131 -14.326,11.646 -20.48,18.79 m 38.786,-61.79 c 1.293,0.084 2.618,0.235 4.027,0.469 4.914,0.968 8.291,2.433 12.286,5.48 1.944,1.442 5.739,2.528 8.092,3.431 0.799,0.319 1.564,0.65 2.338,1.028 2.083,1.052 3.613,2.052 5.109,3.875 1.579,2.126 2.054,3.974 2.076,6.608 -0.078,-2.607 -0.59,-4.432 -2.215,-6.494 -1.516,-1.754 -3.045,-2.696 -5.116,-3.682 -0.687,-0.316 -1.368,-0.597 -2.075,-0.866 -2.868,-1.108 -5.959,-1.76 -8.574,-3.422 -3.923,-2.843 -7.292,-4.14 -12.084,-4.831 -2,-0.215 -3.82,-0.268 -5.603,-0.178 0.575,-0.477 1.155,-0.949 1.739,-1.418 m 32.245,-17.862 c -0.621,0.218 -1.243,0.439 -1.861,0.668 2.386,2.538 7.419,7.172 10.309,7.634 4.622,0.863 10.521,10.67 13.315,14.402 2.887,3.502 4.802,4.379 7.834,7.089 0.036,0.031 0.167,0.138 0.188,0.166 1.267,1.161 2.088,2.108 2.834,3.675 0.847,1.958 0.975,3.601 0.872,5.716 0.167,-2.133 0.092,-3.788 -0.678,-5.8 -0.709,-1.63 -1.514,-2.636 -2.769,-3.87 -0.075,-0.086 -0.211,-0.202 -0.299,-0.284 -2.844,-2.558 -5.026,-3.932 -7.357,-7.153 -2.477,-3.487 -9.124,-14.098 -12.328,-16.591 -1.923,-1.338 -6.535,-4.154 -10.06,-5.652 m 57.63,-4.154 c -1.754,-0.341 -3.522,-0.641 -5.303,-0.899 4.3,1.505 7.838,3.816 11.779,7.396 1.486,1.407 2.891,2.602 4.454,3.898 0.655,0.563 1.294,1.069 1.612,1.889 0.388,1.272 0.24,3.017 0.201,4.362 -0.063,2.452 -0.126,4.915 -0.097,7.365 0.037,3.058 0.062,6.117 0.093,9.174 0.053,-3.057 0.106,-6.116 0.161,-9.174 0.028,-2.545 0.112,-5.036 0.245,-7.577 0.031,-0.627 0.231,-3.825 -0.078,-4.328 -0.343,-0.977 -0.966,-1.517 -1.717,-2.195 -1.468,-1.353 -2.85,-2.613 -4.262,-4.041 -2.45,-2.433 -4.707,-4.323 -7.088,-5.87 m 46.5,21.163 c -1.197,-0.932 -2.412,-1.842 -3.648,-2.725 0.767,1.599 1.393,3.376 1.976,5.023 2.408,6.895 5.128,16.275 9.398,22.164 0.066,0.091 0.221,0.272 0.268,0.356 0.32,0.436 0.482,1.114 0.596,1.633 0.136,0.882 0.33,1.744 0.377,2.645 0.143,1.663 0.198,3.275 0.236,4.939 0.06,-1.656 0.042,-3.297 -0.044,-4.953 -0.052,-0.913 -0.129,-1.786 -0.278,-2.688 -0.115,-0.605 -0.253,-1.273 -0.59,-1.797 -0.109,-0.157 -0.219,-0.316 -0.324,-0.477 -4.222,-6.271 -5.998,-15.12 -7.597,-22.423 z m 33.594,43.379 c -0.477,-1.101 -0.97,-2.193 -1.479,-3.276 l -0.049,0.397 c -1.022,7.336 -3.496,16.068 -3.564,23.195 -10e-4,1.336 -0.027,2.626 -0.178,3.951 -0.496,3.805 -1.661,4.655 -1.708,8.898 0.178,-4.336 1.515,-5.085 2.123,-9.056 0.154,-1.279 0.207,-2.504 0.226,-3.793 0.407,-6.432 2.754,-13.785 4.629,-20.316 m 8.419,54.92 c 0.088,-0.861 0.162,-1.726 0.229,-2.592 -1.247,-0.818 -2.452,-1.398 -4.157,-2.019 -3.188,-0.952 -6.099,-1.376 -9.401,-1.603 -0.753,-0.045 -1.575,-0.1 -2.325,-0.095 -1.587,-0.053 -2.646,-0.369 -4.58,-0.365 2.299,0.068 2.79,0.451 4.569,0.646 0.812,0.056 1.616,0.128 2.427,0.217 3.177,0.366 6.008,0.853 8.872,2.34 1.915,0.946 3.151,1.846 4.366,3.471 m -16.545,47.741 c 0.983,-1.55 1.93,-3.129 2.838,-4.73 -0.052,-2.593 -0.389,-4.679 -1.643,-7.152 -1.395,-2.435 -2.936,-4.028 -4.626,-6.172 -2.043,-2.53 -3.698,-5.1 -5.123,-8.03 1.352,3.026 2.937,5.693 4.885,8.366 1.529,2.055 3.041,3.856 4.05,6.237 1.025,2.703 0.952,4.858 0.602,7.695 -0.271,1.296 -0.609,2.529 -0.983,3.786 m -41.907,38.617 c 1.456,-0.766 2.897,-1.562 4.316,-2.391 0.138,-0.389 0.292,-0.768 0.461,-1.157 2.121,-4.29 4.486,-6.943 8.004,-10.132 2.102,-1.821 5.062,-3.981 6.46,-6.357 0.3,-0.571 0.464,-1.03 0.547,-1.673 0.065,-0.669 0,-1.169 -0.193,-1.812 -0.584,-1.639 -1.634,-2.813 -2.839,-4.028 0.056,0.066 0.072,0.084 0.104,0.157 -0.001,0 -0.008,-0.016 -0.008,-0.018 -0.013,-0.039 -0.027,-0.079 -0.042,-0.117 -0.054,-0.156 -0.107,-0.313 -0.165,-0.468 -0.203,-0.553 -0.398,-1.157 -0.625,-1.696 -0.719,-1.867 -1.468,-3.672 -2.305,-5.49 -0.275,-0.589 -0.556,-1.163 -0.84,-1.748 -1.964,-3.817 -4.031,-7.312 -7.328,-10.138 -0.146,-0.136 -0.735,-0.565 -0.793,-0.743 -0.063,-0.106 -0.086,-0.187 -0.099,-0.309 -0.016,-0.182 0.008,-0.356 0.039,-0.531 -0.018,0.09 -0.078,0.451 -0.057,0.533 0.01,0.124 0.032,0.21 0.091,0.322 0.162,0.279 0.533,0.566 0.78,0.775 3.245,2.951 5.247,6.558 7.114,10.472 0.227,0.482 0.518,1.053 0.704,1.544 0.799,1.828 1.51,3.625 2.157,5.512 0.167,0.564 0.412,1.132 0.569,1.703 0.042,0.156 0.106,0.314 0.151,0.471 0.011,0.041 0.028,0.086 0.041,0.129 0.001,0.004 0.011,0.034 0.013,0.037 0.011,0.028 0.018,0.037 0.04,0.062 1.063,1.129 2.062,2.295 2.506,3.81 0.135,0.521 0.173,0.927 0.095,1.459 -0.091,0.508 -0.244,0.87 -0.503,1.313 -1.389,2.027 -4.59,4.14 -6.581,5.681 -4.079,3.106 -6.627,5.583 -9.456,9.946 -0.28,0.435 -0.549,0.869 -0.809,1.315 -0.482,0.946 -1.03,2.179 -1.549,3.567 M 77.793,25.751 c 1.353,-0.082 2.702,-0.185 4.041,-0.314 0.302,-0.671 0.572,-1.369 0.85,-2.134 0.094,-0.122 0.696,-2.214 0.784,-2.523 1.005,-3.313 2.744,-5.361 5.495,-7.439 1.955,-1.547 3.981,-3.649 5.638,-5.503 1.072,-1.238 2.024,-2.431 2.911,-3.813 0.68,-1.099 1.296,-2.213 1.425,-3.519 0.227,-3.441 0.52,-7.125 -0.042,-10.557 -0.849,-4.524 -1.068,-6.679 -1.13,-11.462 -0.025,4.678 0.187,7.163 0.757,11.634 0.386,3.379 0.027,6.957 -0.289,10.329 -0.18,1.143 -0.814,2.152 -1.458,3.091 -0.94,1.29 -1.921,2.378 -3.041,3.507 -1.434,1.436 -3.989,3.847 -5.78,4.774 -3.267,2.032 -5.058,3.882 -7.053,7.156 -0.584,1 -1.062,1.964 -1.531,3.019 -0.537,1.251 -1.036,2.511 -1.577,3.754 m -6.751,-36.304 c -0.673,1.633 -1.029,2.987 -1.21,4.763 -0.209,3.417 0.667,5.4 1.121,8.635 0.191,1.755 0.105,2.994 -0.368,4.704 -0.701,2.312 -1.743,4.006 -3.159,5.946 -2.006,2.784 -4.09,4.99 -6.299,7.558 -0.667,0.724 -2.47,2.272 -4.623,3.953 -1.503,-0.198 -2.996,-0.426 -4.477,-0.685 2.885,-2.489 5.984,-4.807 7.444,-5.939 2.387,-1.865 4.591,-3.688 6.693,-5.873 1.426,-1.702 2.532,-3.216 3.35,-5.296 0.521,-1.539 0.662,-2.663 0.577,-4.28 -0.28,-3.33 -1.071,-5.193 -0.776,-8.772 0.221,-1.723 0.617,-3.047 1.276,-4.656 0.19,-0.443 0.387,-0.867 0.601,-1.299 1.58,-3.02 3.394,-5.446 5.562,-8.065 0.002,-0.002 1.346,-1.333 1.47,-1.458 -0.474,0.5 -0.948,1.003 -1.424,1.501 0.001,-0.001 0.003,-0.004 0.005,-0.006 -2.094,2.662 -3.832,5.119 -5.288,8.183 -0.167,0.36 -0.327,0.717 -0.475,1.086"
             style="fill:#f29e9e;fill-opacity:1;fill-rule:evenodd;stroke:none"
             id="path112081" />
        </g>
        <g
           id="g112083"
           transform="translate(95.2964,360.8135)">
          <path
             d="M 0,0 C 0.986,0.811 1.99,1.602 3.013,2.37 3.047,1.881 3.057,1.445 3.041,1.077 2.217,-8.838 1.299,-13.86 4.287,-23.888 c 0.749,-2.331 1.221,-4.471 1.808,-6.821 0.447,-1.692 0.849,-3.077 1.975,-4.452 0.673,-0.749 1.228,-1.174 2.093,-1.655 0.993,-0.538 1.911,-0.872 2.985,-1.196 3.702,-1.065 7.553,-1.47 11.375,-1.83 -3.842,0.281 -7.711,0.602 -11.459,1.531 -1.184,0.328 -2.192,0.673 -3.278,1.253 -0.828,0.467 -1.415,0.899 -2.061,1.597 -1.226,1.44 -1.68,2.816 -2.202,4.6 -0.668,2.306 -1.214,4.42 -2.042,6.697 C -0.001,-14.135 0.787,-9.805 0,0 m -30.696,-71.626 c -0.097,1.379 -0.164,2.765 -0.197,4.159 3.339,-8.813 12.939,-18.458 18.157,-25.724 2.444,-3.391 4.821,-6.347 8.162,-8.879 0.946,-0.716 1.84,-1.309 2.866,-1.899 5.054,-2.723 9.255,-3.363 14.94,-3.475 -5.72,0.012 -9.95,0.576 -15.093,3.2 -1.142,0.622 -2.126,1.255 -3.172,2.026 -3.393,2.626 -5.655,5.251 -8.198,8.674 -4.534,6.131 -12.449,14.282 -17.465,21.918 m 36.411,-63.664 -0.285,0.198 c 2.332,0.399 4.352,1.137 6.647,2.135 0.806,0.415 2.77,1.764 3.491,2.355 -0.459,-0.472 -2.788,-2.049 -3.45,-2.443 -2.214,-1.013 -4.168,-1.779 -6.403,-2.245 m 30.261,-13.108 -0.016,0.003 c 0.016,0.235 0.028,0.474 0.035,0.72 -0.002,-0.248 -0.007,-0.488 -0.019,-0.723 m 31.895,-0.748 -0.065,-0.012 c 0.04,0.657 0.034,1.34 -0.004,2.08 0.058,-0.736 0.088,-1.413 0.069,-2.068 m 62.46,120.453 0.083,-0.178 c -0.851,-1.049 -1.792,-2.039 -2.865,-2.959 -0.145,-0.136 -0.734,-0.565 -0.793,-0.743 -0.062,-0.106 -0.086,-0.187 -0.098,-0.309 -0.016,-0.182 0.007,-0.356 0.039,-0.531 -0.019,0.09 -0.078,0.451 -0.057,0.533 0.01,0.124 0.031,0.21 0.091,0.322 0.162,0.279 0.532,0.566 0.779,0.775 1.06,0.965 1.987,1.999 2.821,3.09 M 92.128,10.231 c 1.09,-0.551 2.167,-1.127 3.233,-1.724 0.671,-0.832 1.299,-1.675 1.894,-2.606 0.681,-1.099 1.296,-2.212 1.426,-3.519 0.227,-3.441 0.52,-7.125 -0.042,-10.557 -0.85,-4.524 -1.068,-6.679 -1.131,-11.462 -0.024,4.678 0.188,7.163 0.758,11.634 0.386,3.379 0.026,6.957 -0.289,10.329 -0.181,1.143 -0.814,2.152 -1.458,3.091 -0.94,1.29 -1.922,2.378 -3.041,3.507 -0.383,0.384 -0.844,0.833 -1.35,1.307 M 60.74,19.048 c 1.292,-0.103 2.574,-0.233 3.848,-0.394 0.877,-1.038 1.738,-2.109 2.582,-3.283 1.416,-1.94 2.457,-3.634 3.159,-5.946 0.472,-1.71 0.558,-2.949 0.368,-4.704 -0.454,-3.235 -1.33,-5.218 -1.121,-8.635 0.181,-1.776 0.537,-3.13 1.21,-4.763 0.148,-0.369 0.307,-0.726 0.474,-1.086 1.457,-3.064 3.195,-5.521 5.288,-8.183 -0.002,0.002 -0.003,0.005 -0.005,0.006 0.477,-0.497 0.951,-1.001 1.424,-1.501 -0.123,0.125 -1.467,1.456 -1.469,1.458 -2.168,2.619 -3.982,5.045 -5.562,8.065 -0.214,0.432 -0.411,0.857 -0.602,1.299 -0.658,1.609 -1.055,2.933 -1.275,4.656 -0.295,3.579 0.495,5.442 0.776,8.772 0.084,1.617 -0.056,2.741 -0.578,4.28 -0.818,2.08 -1.923,3.594 -3.35,5.296 -1.645,1.713 -3.355,3.202 -5.167,4.663"
             style="fill:#fab6b6;fill-opacity:1;fill-rule:evenodd;stroke:none"
             id="path112085" />
        </g>
        <g
           id="g112087"
           transform="translate(95.499,357.8691)">
          <path
             d="m 0,0 c 0.867,0.658 1.75,1.289 2.654,1.895 -0.756,-8.56 -1.336,-13.554 1.431,-22.838 0.748,-2.331 1.22,-4.472 1.807,-6.822 0.447,-1.692 0.849,-3.077 1.975,-4.452 0.673,-0.749 1.229,-1.174 2.093,-1.655 0.994,-0.537 1.912,-0.871 2.986,-1.195 3.701,-1.066 7.553,-1.471 11.374,-1.83 -3.842,0.281 -7.71,0.601 -11.459,1.53 -1.183,0.328 -2.192,0.674 -3.278,1.254 -0.828,0.467 -1.415,0.898 -2.061,1.596 -1.226,1.441 -1.68,2.817 -2.201,4.6 -0.669,2.307 -1.215,4.421 -2.042,6.697 C 0.166,-12.252 0.465,-7.841 0,0 m 69.915,-3.847 c 0.178,-0.615 0.398,-1.227 0.668,-1.885 0.148,-0.37 0.308,-0.727 0.475,-1.086 1.456,-3.065 3.194,-5.522 5.288,-8.184 -0.002,0.002 -0.004,0.005 -0.005,0.007 0.476,-0.498 0.95,-1.001 1.424,-1.501 -0.124,0.124 -1.468,1.455 -1.47,1.457 -2.168,2.619 -3.982,5.046 -5.562,8.065 -0.214,0.432 -0.411,0.857 -0.601,1.299 -0.346,0.848 -0.621,1.614 -0.835,2.403 0.207,-0.191 0.413,-0.381 0.618,-0.575"
             style="fill:#fccaca;fill-opacity:1;fill-rule:evenodd;stroke:none"
             id="path112089" />
        </g>
        <g
           id="g112091"
           transform="translate(418.6504,168.1973)">
          <path
             d="m 0,0 c 60.711,0 110.227,49.515 110.227,110.228 0,60.711 -49.516,110.227 -110.227,110.227 -60.712,0 -110.228,-49.516 -110.228,-110.227 C -110.228,49.515 -60.712,0 0,0"
             style="fill:#e8d8d8;fill-opacity:1;fill-rule:evenodd;stroke:none"
             id="path112093" />
        </g>
        <g
           id="g112095"
           transform="translate(401.75,210.5127)">
          <path
             d="m 0,0 c 46.713,0 84.811,38.1 84.811,84.811 0,46.714 -38.098,84.814 -84.811,84.814 -46.714,0 -84.814,-38.1 -84.814,-84.814 C -84.814,38.1 -46.714,0 0,0"
             style="fill:#f0e2e2;fill-opacity:1;fill-rule:evenodd;stroke:none"
             id="path112097" />
        </g>
        <g
           id="g112099"
           transform="translate(380.752,260.7031)">
          <path
             d="m 0,0 c 29.788,0 54.083,24.296 54.083,54.083 0,29.788 -24.295,54.083 -54.083,54.083 -29.789,0 -54.083,-24.295 -54.083,-54.083 C -54.083,24.296 -29.789,0 0,0"
             style="fill:#f7efef;fill-opacity:1;fill-rule:evenodd;stroke:none"
             id="path112101" />
        </g>
        <g
           id="g112103"
           transform="translate(356.2881,363.0322)">
          <path
             d="M 0,0 C 1.613,0.819 3.274,1.56 4.975,2.215 3.598,0.851 2.076,-0.416 0.248,-1.809 c -1.991,-1.541 -5.19,-3.654 -6.58,-5.68 -0.259,-0.444 -0.412,-0.806 -0.503,-1.314 -0.078,-0.532 -0.04,-0.937 0.096,-1.459 0.443,-1.514 1.442,-2.68 2.507,-3.809 0.022,-0.026 0.026,-0.034 0.038,-0.063 0.003,-0.003 0.011,-0.033 0.013,-0.037 0.013,-0.043 0.03,-0.088 0.041,-0.129 0.045,-0.157 0.108,-0.314 0.152,-0.471 0.156,-0.571 0.399,-1.139 0.568,-1.703 0.648,-1.886 1.357,-3.683 2.157,-5.511 0.186,-0.492 0.477,-1.063 0.704,-1.544 1.868,-3.914 3.869,-7.522 7.113,-10.473 0.249,-0.209 0.618,-0.496 0.781,-0.774 0.058,-0.113 0.081,-0.199 0.09,-0.323 0.022,-0.082 -0.039,-0.443 -0.058,-0.533 0.031,0.175 0.057,0.35 0.041,0.531 -0.012,0.123 -0.036,0.204 -0.098,0.309 -0.06,0.179 -0.648,0.607 -0.793,0.743 -3.297,2.826 -5.365,6.321 -7.328,10.138 -0.283,0.585 -0.566,1.159 -0.84,1.748 -0.837,1.818 -1.586,3.623 -2.306,5.49 -0.229,0.539 -0.422,1.144 -0.625,1.696 -0.056,0.156 -0.11,0.312 -0.165,0.468 -0.015,0.038 -0.028,0.078 -0.044,0.117 0,0.002 -0.006,0.018 -0.006,0.018 0.032,-0.072 0.048,-0.091 0.105,-0.156 -1.207,1.215 -2.255,2.388 -2.839,4.027 -0.194,0.644 -0.259,1.144 -0.194,1.813 0.083,0.642 0.246,1.101 0.545,1.672 1.401,2.376 4.361,4.537 6.46,6.357 C -0.475,-0.439 -0.234,-0.218 0,0 m -29.052,-40.402 c 0.044,0.29 0.087,0.579 0.134,0.868 0.826,-1.299 1.78,-2.489 2.742,-3.781 1.949,-2.673 3.534,-5.34 4.886,-8.367 -1.425,2.93 -3.081,5.5 -5.123,8.031 -0.925,1.173 -1.802,2.179 -2.639,3.249 m 92.419,29.721 c 0.101,-0.102 0.2,-0.203 0.299,-0.307 -0.171,-0.389 -0.347,-0.767 -0.536,-1.149 -1.58,-3.019 -3.394,-5.446 -5.563,-8.065 -10e-4,-0.002 -1.343,-1.333 -1.468,-1.457 0.474,0.5 0.946,1.003 1.423,1.501 -10e-4,-0.002 -0.002,-0.005 -0.004,-0.007 2.093,2.662 3.831,5.119 5.288,8.184 0.167,0.359 0.324,0.716 0.474,1.085 z M 37.231,4.317 C 37.56,4.238 37.888,4.157 38.214,4.071 37.988,3.79 37.767,3.5 37.547,3.198 36.903,2.26 36.268,1.25 36.089,0.107 35.774,-3.265 35.413,-6.843 35.8,-10.222 c 0.571,-4.47 0.78,-6.956 0.756,-11.633 -0.063,4.782 -0.282,6.937 -1.129,11.462 -0.563,3.431 -0.269,7.116 -0.042,10.556 0.128,1.307 0.743,2.42 1.425,3.52 0.139,0.214 0.28,0.427 0.421,0.634"
             style="fill:#fccaca;fill-opacity:1;fill-rule:evenodd;stroke:none"
             id="path112105" />
        </g>
        <g
           id="g112107"
           transform="translate(386.3975,376.166)">
          <path
             d="m 0,0 c 9.062,2.52 17.629,0.166 19.136,-5.258 1.507,-5.424 -4.615,-11.862 -13.676,-14.38 -9.064,-2.518 -17.63,-0.164 -19.138,5.259 C -15.186,-8.955 -9.062,-2.517 0,0"
             style="fill:#ffffff;fill-opacity:1;fill-rule:evenodd;stroke:none"
             id="path112109" />
        </g>
        <g
           id="g112111"
           transform="translate(409.2158,354.9336)">
          <path
             d="m 0,0 c 5.628,-1.528 8.822,-6.956 7.132,-12.127 -1.69,-5.171 -7.624,-8.124 -13.252,-6.598 -5.629,1.529 -8.822,6.957 -7.131,12.127 C -11.563,-1.427 -5.63,1.527 0,0"
             style="fill:#ffffff;fill-opacity:1;fill-rule:evenodd;stroke:none"
             id="path112113" />
        </g>
        <g
           id="g112115"
           transform="translate(490.6084,362.6895)">
          <path
             d="M 0,0 C -1.001,0.847 -2.013,1.679 -3.044,2.489 -3.237,1.165 -3.331,0.02 -3.296,-0.799 c 0.824,-9.915 1.742,-14.937 -1.245,-24.965 -0.751,-2.331 -1.222,-4.471 -1.807,-6.821 -0.45,-1.692 -0.85,-3.077 -1.976,-4.452 -0.673,-0.749 -1.231,-1.174 -2.095,-1.655 -0.992,-0.538 -1.908,-0.872 -2.985,-1.196 -3.701,-1.065 -7.552,-1.47 -11.373,-1.83 3.841,0.281 7.711,0.602 11.46,1.53 1.182,0.329 2.189,0.674 3.275,1.254 0.828,0.467 1.415,0.899 2.062,1.597 1.226,1.44 1.68,2.816 2.202,4.6 0.669,2.306 1.214,4.42 2.043,6.697 3.527,10.16 2.671,14.469 3.511,24.548 C -0.18,-1.114 -0.102,-0.604 0,0 m 35.133,-54.598 c 0.023,-3.709 -0.084,-7.046 -0.275,-9.242 -1.717,-9.642 -15.331,-22.722 -21.881,-31.58 -2.543,-3.423 -4.806,-6.048 -8.198,-8.674 -1.046,-0.771 -2.031,-1.404 -3.175,-2.026 -5.14,-2.624 -9.371,-3.188 -15.091,-3.2 5.686,0.112 9.887,0.752 14.939,3.475 1.027,0.59 1.922,1.183 2.866,1.899 3.343,2.532 5.717,5.488 8.163,8.879 6.501,9.052 19.806,21.797 19.329,32.028 -0.127,2.088 -0.136,10.786 0.113,18.161 1.215,-3.172 2.289,-6.414 3.21,-9.72 m 1.332,-54.054 c 0.577,2.557 1.069,5.145 1.466,7.767 -0.85,-1.516 -1.479,-2.675 -1.714,-3.131 -4.629,-8.823 -13.451,-16.245 -20.799,-22.776 -3.834,-3.399 -8.104,-7.481 -12.896,-9.446 -0.752,-0.282 -1.542,-0.54 -2.334,-0.694 -1.5,-0.302 -2.694,-0.36 -4.22,-0.253 -3.076,0.29 -5.482,1.126 -8.3,2.352 -0.807,0.415 -2.77,1.764 -3.49,2.355 0.459,-0.472 2.788,-2.049 3.451,-2.443 2.819,-1.291 5.218,-2.181 8.313,-2.557 1.659,-0.153 2.947,-0.105 4.582,0.215 0.758,0.162 1.424,0.36 2.154,0.621 5.065,2.027 9.154,5.734 13.305,9.2 7.313,6.131 14.327,11.646 20.482,18.79 m -38.788,-61.79 c -1.291,0.084 -2.617,0.235 -4.025,0.469 -4.915,0.968 -8.293,2.433 -12.286,5.48 -1.944,1.442 -5.739,2.528 -8.092,3.431 -0.799,0.319 -1.564,0.65 -2.339,1.028 -2.083,1.052 -3.612,2.052 -5.108,3.875 -1.581,2.126 -2.056,3.974 -2.078,6.608 0.08,-2.607 0.592,-4.432 2.217,-6.494 1.516,-1.754 3.045,-2.696 5.116,-3.682 0.688,-0.316 1.368,-0.597 2.075,-0.866 2.867,-1.108 5.957,-1.76 8.574,-3.422 3.923,-2.843 7.29,-4.14 12.083,-4.831 1.999,-0.215 3.821,-0.268 5.604,-0.178 -0.575,-0.477 -1.155,-0.949 -1.741,-1.418 m -32.243,-17.862 c 0.621,0.218 1.243,0.439 1.859,0.668 -2.384,2.538 -7.417,7.172 -10.307,7.634 -4.623,0.863 -10.521,10.67 -13.315,14.402 -2.887,3.502 -4.801,4.379 -7.834,7.089 -0.036,0.031 -0.169,0.138 -0.19,0.166 -1.267,1.161 -2.087,2.108 -2.833,3.675 -0.847,1.958 -0.974,3.601 -0.871,5.716 -0.167,-2.133 -0.092,-3.788 0.678,-5.8 0.707,-1.63 1.514,-2.636 2.77,-3.87 0.074,-0.086 0.21,-0.202 0.297,-0.284 2.845,-2.558 5.028,-3.932 7.357,-7.153 2.475,-3.487 9.125,-14.098 12.328,-16.591 1.924,-1.338 6.535,-4.154 10.061,-5.652 m -57.631,-4.154 c 1.755,-0.341 3.521,-0.641 5.304,-0.899 -4.302,1.505 -7.838,3.816 -11.779,7.396 -1.486,1.407 -2.893,2.602 -4.454,3.898 -0.655,0.563 -1.294,1.069 -1.612,1.889 -0.388,1.272 -0.242,3.017 -0.202,4.362 0.062,2.452 0.125,4.915 0.097,7.365 -0.036,3.058 -0.061,6.117 -0.093,9.174 -0.054,-3.057 -0.107,-6.116 -0.16,-9.174 -0.028,-2.545 -0.113,-5.036 -0.247,-7.577 -0.029,-0.627 -0.229,-3.825 0.081,-4.328 0.341,-0.977 0.965,-1.517 1.716,-2.195 1.468,-1.353 2.85,-2.613 4.262,-4.041 2.45,-2.433 4.707,-4.323 7.087,-5.87 m -46.499,21.163 c 1.197,-0.932 2.412,-1.842 3.648,-2.725 -0.769,1.599 -1.393,3.376 -1.975,5.023 -2.409,6.895 -5.129,16.275 -9.4,22.164 -0.066,0.091 -0.222,0.272 -0.268,0.356 -0.32,0.436 -0.481,1.114 -0.595,1.633 -0.136,0.882 -0.331,1.744 -0.377,2.645 -0.145,1.663 -0.199,3.275 -0.236,4.939 -0.06,-1.656 -0.042,-3.297 0.044,-4.953 0.054,-0.913 0.129,-1.786 0.277,-2.688 0.116,-0.605 0.252,-1.273 0.589,-1.797 0.111,-0.157 0.218,-0.316 0.325,-0.477 4.223,-6.271 5.998,-15.12 7.598,-22.423 z m -33.594,43.379 c 0.476,-1.101 0.97,-2.193 1.48,-3.276 l 0.05,0.397 c 1.02,7.336 3.494,16.068 3.56,23.195 0.003,1.336 0.028,2.626 0.178,3.951 0.498,3.805 1.663,4.655 1.711,8.898 -0.18,-4.336 -1.518,-5.085 -2.125,-9.056 -0.153,-1.279 -0.207,-2.504 -0.225,-3.793 -0.407,-6.432 -2.754,-13.785 -4.629,-20.316 m -8.419,54.92 c -0.088,-0.861 -0.163,-1.726 -0.23,-2.592 1.248,-0.818 2.452,-1.398 4.159,-2.019 3.186,-0.952 6.098,-1.376 9.4,-1.603 0.753,-0.045 1.575,-0.1 2.324,-0.095 1.588,-0.053 2.646,-0.369 4.581,-0.365 -2.299,0.068 -2.79,0.451 -4.569,0.646 -0.813,0.056 -1.616,0.128 -2.427,0.217 -3.179,0.366 -6.008,0.853 -8.872,2.34 -1.915,0.946 -3.152,1.846 -4.366,3.471 m 16.545,47.741 c -0.983,-1.55 -1.93,-3.129 -2.838,-4.73 0.052,-2.593 0.389,-4.679 1.641,-7.152 1.397,-2.435 2.938,-4.028 4.628,-6.172 2.042,-2.53 3.698,-5.1 5.123,-8.03 -1.352,3.026 -2.937,5.693 -4.886,8.366 -1.53,2.055 -3.04,3.856 -4.049,6.237 -1.025,2.703 -0.954,4.858 -0.604,7.695 0.273,1.296 0.609,2.529 0.985,3.786 m 41.907,38.617 c -1.458,-0.766 -2.897,-1.562 -4.316,-2.391 -0.139,-0.389 -0.292,-0.768 -0.461,-1.157 -2.121,-4.29 -4.487,-6.943 -8.006,-10.132 -2.1,-1.821 -5.06,-3.981 -6.46,-6.357 -0.3,-0.571 -0.462,-1.03 -0.545,-1.673 -0.065,-0.669 0,-1.169 0.193,-1.812 0.584,-1.639 1.632,-2.813 2.839,-4.028 -0.056,0.066 -0.072,0.084 -0.104,0.157 0,0 0.006,-0.016 0.006,-0.018 0.015,-0.039 0.029,-0.079 0.044,-0.117 0.054,-0.156 0.109,-0.313 0.165,-0.468 0.203,-0.553 0.396,-1.157 0.625,-1.696 0.719,-1.867 1.468,-3.672 2.305,-5.49 0.275,-0.589 0.558,-1.163 0.84,-1.748 1.964,-3.817 4.031,-7.312 7.328,-10.138 0.146,-0.136 0.734,-0.565 0.793,-0.743 0.063,-0.106 0.086,-0.187 0.099,-0.309 0.015,-0.182 -0.01,-0.356 -0.041,-0.531 0.018,0.09 0.08,0.451 0.057,0.533 -0.008,0.124 -0.031,0.21 -0.089,0.322 -0.163,0.279 -0.533,0.566 -0.782,0.775 -3.244,2.951 -5.245,6.558 -7.112,10.472 -0.227,0.482 -0.519,1.053 -0.704,1.544 -0.8,1.828 -1.51,3.625 -2.157,5.512 -0.169,0.564 -0.412,1.132 -0.569,1.703 -0.044,0.156 -0.106,0.314 -0.151,0.471 -0.012,0.041 -0.028,0.086 -0.041,0.129 -0.002,0.004 -0.011,0.034 -0.014,0.037 -0.011,0.028 -0.015,0.037 -0.038,0.062 -1.064,1.129 -2.063,2.295 -2.507,3.81 -0.135,0.521 -0.173,0.927 -0.095,1.459 0.09,0.508 0.244,0.87 0.503,1.313 1.389,2.027 4.588,4.14 6.58,5.681 4.08,3.106 6.628,5.583 9.455,9.946 0.282,0.435 0.55,0.869 0.811,1.315 0.482,0.946 1.03,2.179 1.549,3.567 m 44.466,12.389 c -1.354,-0.082 -2.702,-0.185 -4.043,-0.314 -0.3,-0.671 -0.57,-1.369 -0.847,-2.134 -0.093,-0.122 -0.699,-2.214 -0.785,-2.523 -1.006,-3.313 -2.744,-5.361 -5.495,-7.439 -1.956,-1.547 -3.979,-3.649 -5.638,-5.503 -1.072,-1.238 -2.026,-2.431 -2.912,-3.813 -0.681,-1.099 -1.297,-2.213 -1.425,-3.519 -0.226,-3.441 -0.52,-7.125 0.042,-10.557 0.848,-4.524 1.067,-6.679 1.129,-11.462 0.025,4.678 -0.184,7.163 -0.756,11.634 -0.386,3.379 -0.025,6.957 0.29,10.329 0.179,1.143 0.814,2.152 1.458,3.091 0.938,1.29 1.921,2.378 3.041,3.507 1.434,1.436 3.989,3.847 5.778,4.774 3.268,2.032 5.059,3.882 7.055,7.156 0.585,1 1.061,1.964 1.531,3.019 0.537,1.251 1.035,2.511 1.577,3.754 m 6.751,-36.304 c 0.671,1.633 1.027,2.987 1.208,4.763 0.211,3.417 -0.665,5.4 -1.119,8.635 -0.19,1.755 -0.105,2.994 0.366,4.704 0.703,2.312 1.744,4.006 3.16,5.946 2.005,2.784 4.091,4.99 6.3,7.558 0.666,0.724 2.47,2.272 4.622,3.953 1.502,-0.198 2.995,-0.426 4.478,-0.685 -2.885,-2.489 -5.984,-4.807 -7.444,-5.939 -2.386,-1.865 -4.592,-3.688 -6.692,-5.873 -1.428,-1.702 -2.533,-3.216 -3.353,-5.296 -0.521,-1.539 -0.66,-2.663 -0.576,-4.28 0.283,-3.33 1.071,-5.193 0.776,-8.772 -0.22,-1.723 -0.617,-3.047 -1.277,-4.656 -0.188,-0.443 -0.386,-0.867 -0.599,-1.299 -1.581,-3.02 -3.394,-5.446 -5.563,-8.065 -0.001,-0.002 -1.344,-1.333 -1.469,-1.458 0.475,0.5 0.947,1.003 1.424,1.501 -0.002,-0.001 -0.003,-0.004 -0.005,-0.006 2.094,2.662 3.831,5.119 5.288,8.183 0.167,0.36 0.325,0.717 0.475,1.086"
             style="fill:#f29e9e;fill-opacity:1;fill-rule:evenodd;stroke:none"
             id="path112117" />
        </g>
        <g
           id="g112119"
           transform="translate(362.5146,370.5303)">
          <path
             d="M 0,0 C 1.437,0.749 2.896,1.464 4.379,2.136 L 4.288,1.954 C 4.026,1.508 3.759,1.074 3.477,0.64 0.65,-3.724 -1.898,-6.201 -5.978,-9.307 c -1.992,-1.541 -5.191,-3.654 -6.581,-5.68 -0.258,-0.444 -0.412,-0.806 -0.502,-1.314 -0.079,-0.532 -0.041,-0.937 0.095,-1.459 0.444,-1.514 1.443,-2.68 2.507,-3.809 0.023,-0.026 0.026,-0.035 0.038,-0.063 0.003,-0.003 0.012,-0.033 0.014,-0.037 0.012,-0.043 0.029,-0.088 0.041,-0.129 0.045,-0.157 0.107,-0.314 0.151,-0.471 0.156,-0.571 0.4,-1.139 0.569,-1.703 0.647,-1.886 1.357,-3.683 2.157,-5.511 0.185,-0.492 0.476,-1.063 0.704,-1.544 1.867,-3.914 3.868,-7.522 7.112,-10.473 0.249,-0.209 0.618,-0.496 0.781,-0.774 0.059,-0.113 0.082,-0.199 0.09,-0.323 0.023,-0.082 -0.039,-0.443 -0.057,-0.533 0.031,0.175 0.056,0.35 0.041,0.531 -0.013,0.122 -0.036,0.203 -0.099,0.309 -0.06,0.179 -0.647,0.607 -0.793,0.743 -3.297,2.826 -5.364,6.321 -7.328,10.138 -0.282,0.585 -0.565,1.159 -0.84,1.748 -0.837,1.818 -1.586,3.623 -2.306,5.49 -0.228,0.539 -0.421,1.144 -0.625,1.696 -0.055,0.156 -0.11,0.312 -0.165,0.468 -0.014,0.038 -0.028,0.078 -0.043,0.117 0,0.002 -0.006,0.018 -0.006,0.018 0.032,-0.072 0.048,-0.091 0.104,-0.156 -1.207,1.214 -2.255,2.388 -2.839,4.027 -0.193,0.644 -0.259,1.144 -0.193,1.812 0.083,0.643 0.245,1.102 0.545,1.673 1.4,2.376 4.36,4.537 6.46,6.357 C -4,-5.489 -1.862,-3.194 0,0 m -38.554,-41.373 c 0.429,0.983 0.869,1.961 1.335,2.924 -0.173,-2.117 -0.061,-3.946 0.768,-6.128 1.009,-2.381 2.518,-4.182 4.049,-6.237 1.949,-2.672 3.534,-5.339 4.885,-8.366 -1.424,2.93 -3.081,5.5 -5.123,8.031 -1.689,2.143 -3.23,3.736 -4.627,6.171 -0.639,1.264 -1.041,2.424 -1.287,3.605 m -6.29,-45.005 c -0.033,0.25 -0.064,0.5 -0.095,0.75 1.781,-0.523 3.606,-0.795 5.562,-1.019 0.811,-0.089 1.613,-0.162 2.427,-0.217 1.779,-0.196 2.269,-0.578 4.569,-0.647 -1.935,-0.004 -2.993,0.312 -4.581,0.365 -0.749,-0.004 -1.571,0.05 -2.324,0.095 -1.942,0.133 -3.75,0.336 -5.558,0.673 m 6.359,-22.816 c -0.058,0.132 -0.118,0.266 -0.175,0.401 0.615,1.873 1.316,3.147 1.442,6.201 -0.037,-3.236 -0.722,-4.498 -1.267,-6.602 m 98.497,-48.255 -0.021,-0.006 c 0.013,0.215 0.028,0.435 0.046,0.66 -0.011,-0.224 -0.02,-0.442 -0.025,-0.654 m 58.795,111.653 0.151,-0.409 c -0.276,-0.198 -0.571,-0.381 -0.906,-0.569 -1.086,-0.58 -2.093,-0.926 -3.276,-1.254 -3.749,-0.929 -7.618,-1.249 -11.46,-1.531 3.822,0.36 7.673,0.765 11.374,1.83 1.077,0.325 1.993,0.659 2.985,1.196 0.438,0.244 0.798,0.471 1.132,0.737 M 43.071,9.517 C 44.055,9.474 45.035,9.414 46.013,9.337 44.427,7.119 42.756,5.609 40.14,3.981 38.351,3.054 35.796,0.643 34.361,-0.793 33.242,-1.922 32.259,-3.01 31.32,-4.3 c -0.643,-0.938 -1.278,-1.948 -1.458,-3.091 -0.314,-3.372 -0.675,-6.95 -0.289,-10.329 0.572,-4.47 0.781,-6.956 0.756,-11.634 -0.062,4.783 -0.281,6.938 -1.129,11.462 -0.562,3.432 -0.268,7.117 -0.042,10.557 0.128,1.307 0.743,2.42 1.425,3.52 0.886,1.381 1.84,2.574 2.912,3.812 1.658,1.855 3.682,3.956 5.638,5.503 1.661,1.254 2.953,2.498 3.938,4.017 m 13.983,-27.911 c 0.671,1.633 1.027,2.988 1.208,4.763 0.211,3.417 -0.665,5.401 -1.119,8.635 -0.19,1.755 -0.105,2.994 0.366,4.704 0.703,2.313 1.744,4.006 3.16,5.946 0.25,0.347 0.501,0.685 0.753,1.015 C 62.08,6.491 62.734,6.304 63.387,6.112 62.896,5.646 62.411,5.167 61.933,4.668 60.505,2.966 59.4,1.452 58.58,-0.628 c -0.521,-1.539 -0.66,-2.663 -0.576,-4.28 0.283,-3.329 1.071,-5.193 0.776,-8.772 -0.22,-1.722 -0.617,-3.047 -1.277,-4.656 -0.188,-0.442 -0.386,-0.867 -0.6,-1.299 -1.58,-3.019 -3.393,-5.446 -5.562,-8.065 -10e-4,-0.002 -1.344,-1.333 -1.469,-1.457 0.475,0.5 0.946,1.003 1.424,1.501 -0.002,-0.002 -0.003,-0.005 -0.005,-0.007 2.094,2.662 3.831,5.119 5.288,8.184 0.167,0.359 0.324,0.716 0.475,1.085"
             style="fill:#fab6b6;fill-opacity:1;fill-rule:evenodd;stroke:none"
             id="path112121" />
        </g>
        <g
           id="g112123"
           transform="translate(408.3369,217.1709)">
          <path
             d="m 0,0 c 29.789,0 54.084,24.296 54.084,54.083 0,29.788 -24.295,54.083 -54.084,54.083 -29.787,0 -54.083,-24.295 -54.083,-54.083 C -54.083,24.296 -29.787,0 0,0"
             style="fill:#1c1919;fill-opacity:1;fill-rule:evenodd;stroke:none"
             id="path112125" />
        </g>
        <g
           id="g112127"
           transform="translate(444.5566,300.5361)">
          <path
             d="m 0,0 c 6.335,-1.945 9.928,-8.855 8.027,-15.438 -1.903,-6.582 -8.58,-10.339 -14.914,-8.395 -6.335,1.944 -9.928,8.854 -8.026,15.436 C -13.011,-1.816 -6.334,1.943 0,0"
             style="fill:#ffffff;fill-opacity:1;fill-rule:evenodd;stroke:none"
             id="path112129" />
        </g>
        <g
           id="g112131"
           transform="translate(441.9463,279.0898)">
          <path
             d="M 0,0 C 2.37,-0.727 3.714,-3.312 3.002,-5.775 2.29,-8.235 -0.208,-9.644 -2.577,-8.916 -4.947,-8.188 -6.29,-5.604 -5.58,-3.14 -4.868,-0.68 -2.37,0.728 0,0"
             style="fill:#ffffff;fill-opacity:1;fill-rule:evenodd;stroke:none"
             id="path112133" />
        </g>
      </g>
    </g>
  </g>
</svg>
